<?xml version="1.0" encoding="utf-8"?>
<!-- Generator: Adobe Illustrator 24.0.0, SVG Export Plug-In . SVG Version: 6.00 Build 0)  -->
<svg version="1.1" id="Layer_1" xmlns="http://www.w3.org/2000/svg" xmlns:xlink="http://www.w3.org/1999/xlink" x="0px" y="0px"
	 viewBox="0 0 300 150" style="enable-background:new 0 0 300 150;" xml:space="preserve">
<style type="text/css">
	.st0{fill:url(#SVGID_1_);}
	.st1{fill:url(#SVGID_2_);}
	.st2{fill:#FFFFFF;}
	.st3{fill:#808080;}
	.st4{fill:#F4F4F4;}
	.st5{fill:#636363;}
</style>
<g>
	<linearGradient id="SVGID_1_" gradientUnits="userSpaceOnUse" x1="19.6784" y1="66.7143" x2="51.8342" y2="66.7143">
		<stop  offset="0" style="stop-color:#4A4A4A"/>
		<stop  offset="1" style="stop-color:#FFFFFF"/>
	</linearGradient>
	<path class="st0" d="M31.71,18.6C18.98,58.46,59.28,68.44,50.6,103.31c-0.61,1.97-1.39,3.76-2.3,5.39
		c-6.15,5.87-13.69,7.07-19.78,5.51c-5.24-1.33-10.23-4.02-8.47-9.78c0.01-0.04,0.1-0.31,0.11-0.34
		c-2.53,9.85,20.68,7.51,19.32-13.53C38.15,70.15,9.42,54.94,31.71,18.6z"/>
</g>
<g>
	<linearGradient id="SVGID_2_" gradientUnits="userSpaceOnUse" x1="0" y1="89.9916" x2="48.2938" y2="89.9916">
		<stop  offset="0" style="stop-color:#FFFFFF"/>
		<stop  offset="1" style="stop-color:#7A7A7A"/>
	</linearGradient>
	<path class="st1" d="M48.29,108.7C36.3,130,3.46,122.6,0.26,97.02C-2,78.99,11.37,73.07,13.57,58.83
		c0.63,7.17-1.75,12.2-4.03,19.48c-2.57,7.7,1.41,15.87,7.17,13.53c3.26-2.21,4.72-5.84,3.93-11.27c6.7,8.13,4.96,13.18,0.46,21.25
		c-0.41,0.74-0.73,1.47-0.95,2.29c-2.06,5.99,3.02,8.75,8.36,10.11C34.61,115.76,42.15,114.56,48.29,108.7z"/>
</g>
<path class="st2" d="M86.84,124.12"/>
<g>
	<polygon class="st2" points="86.84,75.87 86.84,75.87 86.84,75.87 	"/>
</g>
<g>
	<g>
		<path class="st3" d="M4.76,117.94c4.43,4.19,9.94,7.01,16.13,8.23c2.07,0.41,4.16,0.61,6.22,0.61c4.08,0,8.03-0.79,11.71-2.34
			c1.27-0.53,2.51-1.16,3.69-1.88v21.48c-0.27,0.16-0.53,0.35-0.76,0.57l-33.7-19.46c0.07-0.34,0.11-0.69,0.11-1.03
			c0-2.18-1.43-4.03-3.4-4.67V117.94 M3.26,114.14v6.58c1.88,0,3.4,1.52,3.4,3.4c0,0.62-0.17,1.2-0.46,1.7l35.9,20.73
			c0.42-0.73,1.1-1.29,1.92-1.54v-25.26c-1.78,1.33-3.71,2.44-5.77,3.31c-3.5,1.47-7.28,2.22-11.13,2.22
			c-1.97,0-3.95-0.19-5.93-0.58C13.91,123.27,7.7,119.49,3.26,114.14L3.26,114.14z"/>
	</g>
</g>
<g>
	<circle class="st4" cx="3.26" cy="124.12" r="1.75"/>
</g>
<g>
	<circle class="st4" cx="45.05" cy="51.74" r="1.75"/>
</g>
<g>
	<circle class="st4" cx="45.05" cy="148.25" r="1.75"/>
</g>
<g>
	<circle class="st2" cx="86.84" cy="75.87" r="1.75"/>
</g>
<g>
	<path class="st3" d="M48.34,55.38l33.71,19.46c-0.07,0.31-0.1,0.63-0.11,0.94L57.3,90c-0.98-11.2-6.45-19.88-11.74-28.3
		c-1.29-2.06-2.63-4.17-3.86-6.3l0.06-0.03c0.89,0.81,2.06,1.27,3.29,1.27S47.45,56.18,48.34,55.38 M47.99,53.44
		c-0.59,1.02-1.69,1.7-2.95,1.7c-1.26,0-2.36-0.69-2.95-1.7l-2.45,1.41c1.45,2.57,3.03,5.09,4.64,7.65
		c5.59,8.89,11.33,18.02,11.65,30.02L83.51,76.6c-0.05-0.24-0.08-0.48-0.08-0.73c0-0.62,0.17-1.2,0.46-1.7L47.99,53.44L47.99,53.44z
		"/>
</g>
<g>
	<g>
		<path class="st5" d="M84.46,80.16c0.28,0.15,0.57,0.28,0.87,0.38v38.92c-1.97,0.64-3.4,2.49-3.4,4.67c0,0.35,0.04,0.7,0.11,1.03
			l-33.7,19.46c-0.24-0.21-0.49-0.4-0.76-0.57v-25.34c2.19-2.09,4.08-4.52,5.61-7.25c1.14-2.02,2.07-4.2,2.79-6.52l0.07-0.26
			c0.75-3,1.2-5.99,1.36-8.88L84.46,80.16 M84.54,78.38L55.94,94.9c-0.1,2.95-0.52,6.08-1.35,9.41l-0.06,0.22
			c-0.67,2.18-1.56,4.26-2.65,6.19c-1.58,2.81-3.54,5.27-5.8,7.34v26.95c0.82,0.26,1.5,0.82,1.92,1.54l35.9-20.73
			c-0.29-0.5-0.46-1.08-0.46-1.7c0-1.88,1.52-3.4,3.4-3.4V79.27h0C85.95,79.27,85.15,78.93,84.54,78.38L84.54,78.38z"/>
	</g>
</g>
<g>
	<circle class="st4" cx="86.84" cy="124.12" r="1.75"/>
</g>
<g>
	<path class="st2" d="M133.55,102.84c2.12,2.19,3.18,4.82,3.18,7.88c0,2.57-0.65,4.85-1.96,6.83c-1.31,1.99-3.18,3.53-5.62,4.64
		c-2.44,1.11-5.32,1.66-8.66,1.66c-1.22,0-2.26-0.02-3.11-0.07c-2.89-0.09-5.73-0.13-8.53-0.13c-3.7,0-6.5,0.07-8.39,0.2v-1.35
		c1.62-0.09,2.81-0.27,3.55-0.54c0.74-0.27,1.25-0.79,1.52-1.56c0.27-0.77,0.41-2.01,0.41-3.72V83.12c0-1.71-0.14-2.95-0.41-3.72
		c-0.27-0.77-0.78-1.29-1.52-1.56c-0.74-0.27-1.93-0.45-3.55-0.54v-1.35c1.89,0.14,4.65,0.2,8.25,0.2l7.31-0.07
		c0.86-0.04,1.83-0.07,2.91-0.07c4.6,0,8.13,0.97,10.59,2.91c2.46,1.94,3.69,4.51,3.69,7.71c0,2.62-0.82,4.96-2.47,7.04
		c-1.65,2.08-4.25,3.65-7.82,4.74v0.13C127.89,99.22,131.43,100.66,133.55,102.84z M114.1,77.78c-0.7,0.32-1.18,0.88-1.45,1.69
		c-0.27,0.81-0.41,2.03-0.41,3.65v15.29h4.53c3.7,0,6.28-1,7.75-3.01c1.47-2.01,2.2-4.68,2.2-8.02c0-3.38-0.74-5.91-2.23-7.58
		c-1.49-1.67-3.9-2.5-7.24-2.5C115.85,77.3,114.8,77.46,114.1,77.78z M129.97,110.46c0-3.56-0.96-6.27-2.88-8.12
		c-1.92-1.85-4.97-2.77-9.17-2.77h-5.68v17.12c0,1.62,0.14,2.82,0.41,3.59c0.27,0.77,0.75,1.3,1.45,1.59
		c0.7,0.29,1.77,0.44,3.21,0.44C125.75,122.3,129.97,118.35,129.97,110.46z"/>
	<path class="st2" d="M183.69,77.3c-1.58,0.09-2.75,0.33-3.52,0.71c-0.77,0.38-1.28,1.02-1.56,1.89s-0.41,2.18-0.41,3.89v20.37
		c0,3.25-0.22,6.03-0.64,8.36c-0.43,2.32-1.14,4.32-2.13,5.99c-1.13,1.94-2.79,3.47-4.97,4.6c-2.19,1.13-4.66,1.69-7.41,1.69
		c-4.96,0-8.75-1.22-11.37-3.65c-1.99-1.85-3.31-3.95-3.99-6.29c-0.68-2.35-1.01-5.84-1.01-10.49V83.12c0-1.71-0.14-2.95-0.41-3.72
		c-0.27-0.77-0.78-1.29-1.52-1.56c-0.74-0.27-1.93-0.45-3.55-0.54v-1.35c1.89,0.14,4.78,0.2,8.66,0.2c3.65,0,6.52-0.07,8.59-0.2
		v1.35c-1.62,0.09-2.81,0.27-3.55,0.54c-0.74,0.27-1.25,0.79-1.52,1.56c-0.27,0.77-0.41,2.01-0.41,3.72v22.4
		c0,3.61,0.25,6.61,0.74,9c0.49,2.39,1.52,4.31,3.08,5.75c1.56,1.44,3.85,2.17,6.87,2.17c4.78,0,8.14-1.53,10.08-4.6
		c1.94-3.07,2.91-7.37,2.91-12.92V83.8c0-2.44-0.44-4.1-1.32-5.01c-0.88-0.9-2.49-1.4-4.84-1.49v-1.35c1.62,0.14,3.92,0.2,6.9,0.2
		c2.71,0,4.8-0.07,6.29-0.2V77.3z"/>
	<path class="st2" d="M230.17,120.47c-1.04,1.53-2.08,2.64-3.11,3.32c-1.04,0.68-2.41,1.02-4.13,1.02c-1.85,0-3.37-0.54-4.57-1.62
		c-1.19-1.08-2.09-2.98-2.67-5.68l-1.49-6.77c-0.54-2.35-1.05-4.15-1.52-5.41c-0.47-1.26-1.18-2.28-2.13-3.04
		c-0.95-0.77-2.28-1.15-3.99-1.15h-6.43v15.56c0,1.72,0.14,2.95,0.41,3.72c0.27,0.77,0.78,1.29,1.52,1.56
		c0.74,0.27,1.93,0.45,3.55,0.54v1.35c-2.08-0.14-4.94-0.2-8.59-0.2c-3.88,0-6.77,0.07-8.66,0.2v-1.35
		c1.62-0.09,2.81-0.27,3.55-0.54c0.74-0.27,1.25-0.79,1.52-1.56c0.27-0.77,0.41-2.01,0.41-3.72V83.12c0-1.71-0.14-2.95-0.41-3.72
		c-0.27-0.77-0.78-1.29-1.52-1.56c-0.74-0.27-1.93-0.45-3.55-0.54v-1.35c1.89,0.14,4.65,0.2,8.25,0.2l7.31-0.07
		c0.86-0.04,1.83-0.07,2.91-0.07c5.23,0,9.26,1.09,12.08,3.28c2.82,2.19,4.23,5.02,4.23,8.49c0,1.76-0.42,3.53-1.25,5.31
		c-0.83,1.78-2.23,3.38-4.2,4.8c-1.96,1.42-4.52,2.38-7.68,2.88l0.81,0.13c2.98,0.5,5.14,1.4,6.5,2.71
		c1.35,1.31,2.34,3.38,2.98,6.22l1.69,6.9c0.45,2.08,0.92,3.52,1.42,4.33c0.5,0.81,1.17,1.22,2.03,1.22c0.77,0,1.41-0.2,1.93-0.61
		c0.52-0.41,1.12-1.06,1.79-1.96L230.17,120.47z M201.99,77.78c-0.7,0.32-1.18,0.88-1.45,1.69c-0.27,0.81-0.41,2.03-0.41,3.65v16.64
		h4.53c4.46,0,7.53-0.99,9.2-2.98c1.67-1.98,2.5-4.74,2.5-8.25c0-3.7-0.88-6.5-2.64-8.39c-1.76-1.89-4.63-2.84-8.59-2.84
		C203.74,77.3,202.69,77.46,201.99,77.78z"/>
	<path class="st2" d="M274.69,77.3c-1.58,0.09-2.75,0.33-3.52,0.71c-0.77,0.38-1.29,1.02-1.56,1.89c-0.27,0.88-0.41,2.18-0.41,3.89
		v40.39h-1.56l-28.42-43.91V116c0,1.76,0.15,3.07,0.44,3.92c0.29,0.86,0.87,1.48,1.73,1.86c0.86,0.38,2.19,0.62,3.99,0.71v1.35
		c-1.62-0.14-3.92-0.2-6.9-0.2c-2.71,0-4.8,0.07-6.29,0.2v-1.35c1.58-0.09,2.75-0.33,3.52-0.71c0.77-0.38,1.29-1.02,1.56-1.89
		c0.27-0.88,0.41-2.18,0.41-3.89V83.12c0-1.71-0.14-2.95-0.41-3.72c-0.27-0.77-0.78-1.29-1.52-1.56c-0.74-0.27-1.93-0.45-3.55-0.54
		v-1.35c1.49,0.14,3.59,0.2,6.29,0.2c2.03,0,3.79-0.07,5.28-0.2l23.88,36.81V83.8c0-1.76-0.15-3.07-0.44-3.92
		c-0.29-0.86-0.87-1.48-1.73-1.86c-0.86-0.38-2.19-0.62-3.99-0.71v-1.35c1.62,0.14,3.92,0.2,6.9,0.2c2.71,0,4.8-0.07,6.29-0.2V77.3z
		"/>
	<path class="st2" d="M297.22,77.3c-1.62,0.09-2.81,0.27-3.55,0.54c-0.74,0.27-1.25,0.79-1.52,1.56c-0.27,0.77-0.41,2.01-0.41,3.72
		v33.56c0,1.72,0.14,2.95,0.41,3.72c0.27,0.77,0.78,1.29,1.52,1.56c0.74,0.27,1.93,0.45,3.55,0.54v1.35
		c-2.08-0.14-4.94-0.2-8.59-0.2c-3.88,0-6.77,0.07-8.66,0.2v-1.35c1.62-0.09,2.81-0.27,3.55-0.54c0.74-0.27,1.25-0.79,1.52-1.56
		c0.27-0.77,0.41-2.01,0.41-3.72V83.12c0-1.71-0.14-2.95-0.41-3.72c-0.27-0.77-0.78-1.29-1.52-1.56c-0.74-0.27-1.93-0.45-3.55-0.54
		v-1.35c1.89,0.14,4.78,0.2,8.66,0.2c3.61,0,6.47-0.07,8.59-0.2V77.3z"/>
</g>
</svg>
